<svg xmlns="http://www.w3.org/2000/svg" viewBox="0 0 268.86 131.77">
  <defs>
    <style>
      .cls-1 {
        fill: #c9c9c9;
      }
    </style>
  </defs>
  <g id="Layer_2" data-name="Layer 2">
    <g id="money-emission">
      <g>
        <g>
          <path class="cls-1" d="M259.86,50.74l-8.08-7.11-.16-.14H197.76L160.2,0H40.36L0,46.08l.32,61.55H18.93c-.05-.66-.07-1.33-.07-2a31.73,31.73,0,0,1,.4-5,31,31,0,0,1,61.2,0,31.73,31.73,0,0,1,.4,5c0,.67,0,1.34-.07,2h95.14c-.05-.66-.07-1.33-.07-2a31.73,31.73,0,0,1,.4-5,31,31,0,0,1,61.2,0,31.73,31.73,0,0,1,.4,5c0,.67,0,1.34-.07,2h31.07v-49Zm-163-.11h18v6h-18Zm-60,6h-18v-6h18Zm-18-13.14,28.82-32.9H86.86v32.9Zm78,0V10.59h56l28.42,32.9Z"/>
          <path class="cls-1" d="M18.93,107.63a30.07,30.07,0,0,0,.8,5.32H.32V100.63H19.26a31.73,31.73,0,0,0-.4,5C18.86,106.3,18.88,107,18.93,107.63Z"/>
          <path class="cls-1" d="M175.93,107.63a30.07,30.07,0,0,0,.8,5.32H80a30.07,30.07,0,0,0,.8-5.32c0-.66.07-1.33.07-2a31.73,31.73,0,0,0-.4-5h95.8a31.73,31.73,0,0,0-.4,5C175.86,106.3,175.88,107,175.93,107.63Z"/>
          <path class="cls-1" d="M268.86,100.63V113H237a30.07,30.07,0,0,0,.8-5.32c.05-.66.07-1.33.07-2a31.73,31.73,0,0,0-.4-5Z"/>
        </g>
        <g>
          <circle class="cls-1" cx="49.86" cy="105.63" r="26.14"/>
          <circle class="cls-1" cx="49.86" cy="105.63" r="14.06"/>
        </g>
        <g>
          <circle class="cls-1" cx="206.86" cy="105.63" r="26.14"/>
          <circle class="cls-1" cx="206.86" cy="105.63" r="14.06"/>
        </g>
        <rect class="cls-1" x="86.86" y="10.59" width="10" height="32.9"/>
      </g>
    </g>
  </g>
</svg>
