<svg xmlns="http://www.w3.org/2000/svg" viewBox="0 0 184.9 39.61" width="200" height="50">
  <defs>
    <style>
      .cls-1 {
        isolation: isolate;
      }

      .cls-2 {
        fill: #bdd237;
      }

      .cls-3 {
        fill: #091821;
      }
    </style>
  </defs>
  <g id="Layer_2" data-name="Layer 2">
    <g id="Layer_1-2" data-name="Layer 1">
      <g id="Layer_2-2" data-name="Layer 2">
        <g id="Layer_1-2-2" data-name="Layer 1-2">
          <g id="Layer_2-2-2" data-name="Layer 2-2">
            <g id="Layer_1-2-2-2" data-name="Layer 1-2-2">
              <g id="Layer_2-2-2-2" data-name="Layer 2-2-2">
                <g id="Layer_1-2-2-2-2" data-name="Layer 1-2-2-2">
                  <g id="Group_15" data-name="Group 15">
                    <g id="fuelture">
                      <g class="cls-1">
                        <path class="cls-2" d="M10.65.16a16.32,16.32,0,0,1,3.7.38,20.8,20.8,0,0,1,2.4.67l-1.15,5a9.39,9.39,0,0,0-2-.65,10.83,10.83,0,0,0-2.42-.25,6.14,6.14,0,0,0-2.45.43,4,4,0,0,0-1.6,1.17A4.55,4.55,0,0,0,6.3,8.74a10,10,0,0,0-.25,2.32v1.75h9.5v5H6.05V39H0V11Q0,5.9,2.65,3C4.42,1.12,7.08.16,10.65.16Z"/>
                        <path class="cls-2" d="M41.45,38.16c-1.17.3-2.68.61-4.55.93a37.68,37.68,0,0,1-6.15.47,13.6,13.6,0,0,1-5.28-.9,8.48,8.48,0,0,1-3.4-2.5,9.9,9.9,0,0,1-1.82-3.82,20.19,20.19,0,0,1-.55-4.88V12.81h6.05v13.7q0,4.2,1.22,6t4.28,1.8c.73,0,1.51,0,2.32-.1A12.78,12.78,0,0,0,35.4,34V12.81h6.05Z"/>
                        <path class="cls-2" d="M47.7,26a16.49,16.49,0,0,1,1-6.05,13,13,0,0,1,2.73-4.33A11.28,11.28,0,0,1,55.35,13a12,12,0,0,1,4.5-.88q5.4,0,8.42,3.35t3,10c0,.33,0,.71,0,1.12s0,.8-.07,1.13H54a6.9,6.9,0,0,0,2.22,4.87,8.42,8.42,0,0,0,5.73,1.73,18.5,18.5,0,0,0,4-.4,16.86,16.86,0,0,0,2.88-.85l.8,5a9.63,9.63,0,0,1-1.38.53c-.58.18-1.25.34-2,.5s-1.55.27-2.42.37a23.15,23.15,0,0,1-2.65.15,16.11,16.11,0,0,1-6-1A11.33,11.33,0,0,1,51,35.74a11.62,11.62,0,0,1-2.45-4.31A17.56,17.56,0,0,1,47.7,26Zm17.55-2.7a8.11,8.11,0,0,0-.35-2.38,5.63,5.63,0,0,0-1-1.94,4.8,4.8,0,0,0-1.65-1.31,5.94,5.94,0,0,0-4.77.06,5.62,5.62,0,0,0-1.78,1.37,6.49,6.49,0,0,0-1.12,1.95A10.27,10.27,0,0,0,54,23.31Z"/>
                        <path class="cls-2" d="M86.8,39.46a16.23,16.23,0,0,1-4.48-.6,7,7,0,0,1-2.82-1.57A5.72,5.72,0,0,1,78,34.74a13.17,13.17,0,0,1-.42-3.48V1.16l6.05-1v30A8.77,8.77,0,0,0,83.82,32a3.08,3.08,0,0,0,.63,1.28,2.89,2.89,0,0,0,1.22.8,10,10,0,0,0,2,.42Z"/>
                      </g>
                      <g class="cls-1">
                        <path class="cls-3" d="M92.25,5.91l6-1v7.9h9.3v5H98.3V28.51a7.71,7.71,0,0,0,1,4.5,4,4,0,0,0,3.4,1.35,11.18,11.18,0,0,0,2.92-.35,18.38,18.38,0,0,0,2-.65l1,4.8a23.4,23.4,0,0,1-2.75.93,15.25,15.25,0,0,1-4,.47,12.62,12.62,0,0,1-4.67-.75,6.82,6.82,0,0,1-3-2.18,8.6,8.6,0,0,1-1.55-3.45,21.34,21.34,0,0,1-.45-4.62Z"/>
                        <path class="cls-3" d="M134.9,38.16c-1.17.3-2.68.61-4.55.93a37.68,37.68,0,0,1-6.15.47,13.51,13.51,0,0,1-5.27-.9,8.45,8.45,0,0,1-3.41-2.5,10,10,0,0,1-1.82-3.82,20.19,20.19,0,0,1-.55-4.88V12.81h6v13.7q0,4.2,1.23,6c.81,1.2,2.24,1.8,4.27,1.8.73,0,1.51,0,2.32-.1a12.78,12.78,0,0,0,1.83-.25V12.81h6.05Z"/>
                        <path class="cls-3" d="M157.5,18.26a17.75,17.75,0,0,0-2.08-.52,14.67,14.67,0,0,0-3.07-.28,15.13,15.13,0,0,0-3.7.55V39H142.6V14.06A33.58,33.58,0,0,1,147,12.84a26.81,26.81,0,0,1,5.82-.58c.4,0,.87,0,1.4.08s1.07.11,1.6.2,1,.18,1.55.3a12.12,12.12,0,0,1,1.2.32Z"/>
                        <path class="cls-3" d="M161.3,26a16.49,16.49,0,0,1,1-6.05,13,13,0,0,1,2.73-4.33A11.28,11.28,0,0,1,169,13a12,12,0,0,1,4.5-.88q5.4,0,8.42,3.35t3,10c0,.33,0,.71,0,1.12s0,.8-.07,1.13H167.55a6.9,6.9,0,0,0,2.22,4.87,8.42,8.42,0,0,0,5.73,1.73,18.5,18.5,0,0,0,4-.4,16.86,16.86,0,0,0,2.88-.85l.8,5a9.63,9.63,0,0,1-1.38.53c-.58.18-1.25.34-2,.5s-1.55.27-2.42.37a23.15,23.15,0,0,1-2.65.15,16.11,16.11,0,0,1-6-1,11.33,11.33,0,0,1-4.2-2.85,11.62,11.62,0,0,1-2.45-4.31A17.56,17.56,0,0,1,161.3,26Zm17.55-2.7a8.11,8.11,0,0,0-.35-2.38,5.79,5.79,0,0,0-1-1.94,4.83,4.83,0,0,0-1.66-1.31,5.94,5.94,0,0,0-4.77.06,5.62,5.62,0,0,0-1.78,1.37,6.49,6.49,0,0,0-1.12,1.95,10.27,10.27,0,0,0-.55,2.25Z"/>
                      </g>
                    </g>
                    <g id="Group_5" data-name="Group 5">
                      <path id="Polygon_15" data-name="Polygon 15" class="cls-3" d="M31.94,0l-.7,10.7-5.7-2.07Z"/>
                      <path id="Polygon_16" data-name="Polygon 16" class="cls-3" d="M29.15,16.4l.69-10.77,5.7,2.1Z"/>
                    </g>
                  </g>
                </g>
              </g>
            </g>
          </g>
        </g>
      </g>
    </g>
  </g>
</svg>
