<?xml version="1.0" encoding="utf-8"?>
<!-- Generator: Adobe Illustrator 25.2.3, SVG Export Plug-In . SVG Version: 6.00 Build 0)  -->
<svg version="1.1" id="Layer_1" xmlns="http://www.w3.org/2000/svg" xmlns:xlink="http://www.w3.org/1999/xlink" x="0px" y="0px"
	 viewBox="0 0 184.9 39.6" style="enable-background:new 0 0 184.9 39.6;" xml:space="preserve">
<style type="text/css">
	.st0{fill:#BDD237;}
	.st1{fill:#ECECEC;}
</style>
<g id="Layer_2_1_">
	<g id="Layer_1-2">
		<g id="Layer_2-2">
			<g id="Layer_1-2-2">
				<g id="Layer_2-2-2">
					<g id="Layer_1-2-2-2">
						<g id="Group_15">
							<g id="fuelture">
								<g>
									<path class="st0" d="M10.6,0.2c1.2,0,2.5,0.1,3.7,0.4c0.8,0.2,1.6,0.4,2.4,0.7l-1.1,5c-0.6-0.3-1.3-0.5-2-0.7
										c-0.8-0.2-1.6-0.3-2.4-0.2c-0.8,0-1.7,0.1-2.4,0.4C8.1,6,7.6,6.4,7.1,6.9C6.7,7.5,6.4,8.1,6.3,8.7C6.1,9.5,6,10.3,6.1,11.1
										v1.8h9.5v5H6.1V39H0V11c0-3.4,0.9-6.1,2.7-8C4.4,1.1,7.1,0.2,10.6,0.2z"/>
									<path class="st0" d="M41.5,38.2c-1.2,0.3-2.7,0.6-4.5,0.9c-2,0.3-4.1,0.5-6.1,0.5c-1.8,0.1-3.6-0.3-5.3-0.9
										c-1.3-0.5-2.5-1.4-3.4-2.5s-1.5-2.4-1.8-3.8c-0.4-1.6-0.6-3.2-0.5-4.9V12.8H26v13.7c0,2.8,0.4,4.8,1.2,6
										c0.8,1.2,2.2,1.8,4.3,1.8c0.7,0,1.5,0,2.3-0.1c0.6,0,1.2-0.1,1.8-0.2V12.8h6L41.5,38.2L41.5,38.2z"/>
									<path class="st0" d="M47.7,26c0-2.1,0.3-4.1,1-6c0.6-1.6,1.5-3.1,2.7-4.3c1.1-1.1,2.4-2,3.9-2.6c1.4-0.6,3-0.9,4.5-0.9
										c3.6,0,6.4,1.1,8.4,3.3s3,5.6,3,10c0,0.3,0,0.7,0,1.1s0,0.8-0.1,1.1H54c0.1,1.9,0.9,3.6,2.2,4.9c1.6,1.3,3.7,1.9,5.7,1.7
										c1.3,0,2.7-0.1,4-0.4c1-0.2,1.9-0.5,2.9-0.8l0.8,5c-0.4,0.2-0.9,0.4-1.4,0.5c-0.6,0.2-1.2,0.3-2,0.5s-1.6,0.3-2.4,0.4
										c-0.9,0.1-1.8,0.2-2.7,0.2c-2,0.1-4.1-0.3-6-1c-1.6-0.6-3-1.6-4.2-2.9c-1.1-1.2-2-2.7-2.5-4.3C48,29.7,47.7,27.8,47.7,26z
										 M65.2,23.3c0-0.8-0.1-1.6-0.3-2.4c-0.2-0.7-0.5-1.4-1-1.9c-0.4-0.6-1-1-1.7-1.3c-1.5-0.7-3.2-0.7-4.7,0
										c-0.7,0.3-1.3,0.8-1.8,1.4s-0.9,1.2-1.1,2c-0.3,0.7-0.5,1.5-0.6,2.3L65.2,23.3z"/>
									<path class="st0" d="M86.8,39.5c-1.5,0-3-0.2-4.5-0.6c-1-0.3-2-0.8-2.8-1.6c-0.7-0.7-1.2-1.6-1.5-2.5
										c-0.3-1.1-0.4-2.3-0.4-3.5V1.2l6.1-1v30c0,0.6,0.1,1.2,0.2,1.8c0.1,0.5,0.3,0.9,0.6,1.3c0.3,0.4,0.8,0.6,1.2,0.8
										c0.7,0.2,1.3,0.3,2,0.4L86.8,39.5z"/>
								</g>
								<g>
									<path class="st1" d="M92.2,5.9l6-1v7.9h9.3v5h-9.2v10.7c-0.1,1.6,0.2,3.1,1,4.5c0.8,1,2.1,1.5,3.4,1.3c1,0,2-0.1,2.9-0.3
										c0.7-0.2,1.3-0.4,2-0.7l1,4.8c-0.9,0.4-1.8,0.7-2.8,0.9c-1.3,0.3-2.7,0.5-4,0.5c-1.6,0-3.2-0.2-4.7-0.8
										c-1.2-0.4-2.2-1.2-3-2.2s-1.3-2.2-1.6-3.5c-0.3-1.5-0.5-3.1-0.4-4.6L92.2,5.9z"/>
									<path class="st1" d="M134.9,38.2c-1.2,0.3-2.7,0.6-4.6,0.9c-2,0.3-4.1,0.5-6.2,0.5c-1.8,0.1-3.6-0.3-5.3-0.9
										c-1.3-0.5-2.5-1.4-3.4-2.5s-1.5-2.4-1.8-3.8c-0.4-1.6-0.6-3.2-0.6-4.9V12.8h6v13.7c0,2.8,0.4,4.8,1.2,6
										c0.8,1.2,2.2,1.8,4.3,1.8c0.7,0,1.5,0,2.3-0.1c0.6,0,1.2-0.1,1.8-0.2V12.8h6.1L134.9,38.2z"/>
									<path class="st1" d="M157.5,18.3c-0.7-0.2-1.4-0.4-2.1-0.5c-1-0.2-2-0.3-3.1-0.3c-1.3,0-2.5,0.2-3.7,0.5v21h-6V14.1
										c1.4-0.5,2.9-0.9,4.4-1.2c1.9-0.4,3.9-0.6,5.8-0.6c0.4,0,0.9,0,1.4,0.1s1.1,0.1,1.6,0.2s1,0.2,1.6,0.3
										c0.4,0.1,0.8,0.2,1.2,0.3L157.5,18.3z"/>
									<path class="st1" d="M161.3,26c0-2.1,0.3-4.1,1-6c0.6-1.6,1.5-3.1,2.7-4.3c1.1-1.1,2.5-2,4-2.6c1.4-0.6,3-0.9,4.5-0.9
										c3.6,0,6.4,1.1,8.4,3.3s3,5.6,3,10c0,0.3,0,0.7,0,1.1s0,0.8-0.1,1.1h-17.3c0.1,1.9,0.9,3.6,2.2,4.9
										c1.6,1.3,3.7,1.9,5.7,1.7c1.3,0,2.7-0.1,4-0.4c1-0.2,1.9-0.5,2.9-0.8l0.8,5c-0.4,0.2-0.9,0.4-1.4,0.5
										c-0.6,0.2-1.2,0.3-2,0.5s-1.6,0.3-2.4,0.4c-0.9,0.1-1.8,0.2-2.6,0.2c-2,0.1-4.1-0.3-6-1c-1.6-0.6-3-1.6-4.2-2.8
										c-1.1-1.2-2-2.7-2.4-4.3C161.5,29.7,161.3,27.8,161.3,26z M178.9,23.3c0-0.8-0.1-1.6-0.4-2.4c-0.2-0.7-0.5-1.4-1-1.9
										c-0.4-0.6-1-1-1.7-1.3c-1.5-0.6-3.3-0.6-4.8,0.1c-0.7,0.3-1.3,0.8-1.8,1.4s-0.9,1.2-1.1,2c-0.3,0.7-0.5,1.5-0.6,2.2h11.4
										V23.3z"/>
								</g>
							</g>
							<g id="Group_5">
								<path id="Polygon_15" class="st1" d="M31.9,0l-0.7,10.7l-5.7-2.1L31.9,0z"/>
								<path id="Polygon_16" class="st1" d="M29.1,16.4l0.7-10.8l5.7,2.1L29.1,16.4z"/>
							</g>
						</g>
					</g>
				</g>
			</g>
		</g>
	</g>
</g>
</svg>
